<svg width="350" height="52" viewBox="0 0 350 52" fill="none" xmlns="http://www.w3.org/2000/svg">
<g clip-path="url(#clip0_2743_4513)">
<path d="M222.927 1.60141C198.129 2.39387 173.348 3.72303 148.607 5.58888C126.155 5.99979 103.7 6.41069 81.2486 6.8216C56.613 7.27444 31.9775 7.72308 7.34598 8.17591C4.96281 8.21784 1.27235 10.025 0.906957 12.7546C0.505026 15.7651 4.11023 16.2683 6.14018 16.2347C22.1484 15.9412 38.1566 15.6477 54.1649 15.3542C47.5026 16.2305 40.8484 17.1404 34.1942 18.0922C31.8881 18.4234 28.6686 19.5387 27.9338 22.1425C27.2761 24.4654 29.3304 26.1132 31.5106 26.1552C68.4801 26.8093 105.454 27.4676 142.423 28.1217C150.291 28.26 158.16 28.4026 166.028 28.5409C154.709 29.8198 143.406 31.2915 132.135 32.9561C114.463 35.5725 96.863 38.6752 79.3404 42.2099C77.4485 42.5914 74.7649 44.3021 74.4766 46.495C74.1965 48.5915 76.4335 49.9626 78.228 49.9794C120.272 50.3567 162.317 50.7383 204.361 51.1156C216.216 51.2205 228.067 51.3295 239.922 51.4343C242.638 51.4595 246.122 50.6586 247.49 47.9039C248.712 45.4384 246.422 43.3881 244.088 43.3671C203.614 43.0023 163.141 42.6376 122.668 42.2728C123.796 42.0967 124.921 41.9164 126.05 41.7445C141.343 39.4048 156.69 37.4216 172.069 35.7989C202.843 32.5536 233.755 30.7464 264.688 30.39C266.056 30.3733 267.44 30.3649 268.821 30.3565C284.5 30.6332 300.175 30.9141 315.855 31.1909C318.567 31.237 322.062 30.3984 323.422 27.6604C324.673 25.1447 322.334 23.2201 320.02 23.1237C304.02 22.4612 288.004 22.1761 271.991 22.2725C251.03 21.8994 230.069 21.5304 209.107 21.1572C172.138 20.5031 135.164 19.8448 98.1946 19.1907C95.2147 19.1362 92.2306 19.0859 89.2506 19.0314C108.608 16.9056 127.998 15.1068 147.413 13.6435C187.886 12.9013 228.364 12.1634 268.837 11.4212C293.472 10.9684 318.108 10.5198 342.739 10.0669C345.001 10.025 348.322 8.4233 349 6.01656C349.666 3.66433 347.595 2.08779 345.423 2.00393C304.609 0.435777 263.746 0.29741 222.927 1.60141Z" fill="#4265D2"/>
</g>
<defs>
<clipPath id="clip0_2743_4513">
<rect width="348.251" height="50.7218" fill="white" transform="translate(0.874023 0.716553)"/>
</clipPath>
</defs>
</svg>
