<svg width="222" height="299" viewBox="0 0 222 299" fill="none" xmlns="http://www.w3.org/2000/svg">
<path d="M111.5 104C111.5 104 113.707 124.6 122.304 133.196C130.9 141.793 151.5 144 151.5 144C151.5 144 130.9 146.207 122.304 154.804C113.707 163.4 111.5 184 111.5 184C111.5 184 109.293 163.4 100.696 154.804C92.0997 146.207 71.5 144 71.5 144C71.5 144 92.0997 141.793 100.696 133.196C109.293 124.6 111.5 104 111.5 104Z" fill="white" fill-opacity="0.25"/>
<path d="M181.5 152C181.5 152 183.707 172.6 192.304 181.196C200.9 189.793 221.5 192 221.5 192C221.5 192 200.9 194.207 192.304 202.804C183.707 211.4 181.5 232 181.5 232C181.5 232 179.293 211.4 170.696 202.804C162.1 194.207 141.5 192 141.5 192C141.5 192 162.1 189.793 170.696 181.196C179.293 172.6 181.5 152 181.5 152Z" fill="white" fill-opacity="0.1"/>
<path d="M40.5 181C40.5 181 42.707 211.385 51.3036 224.065C59.9003 236.745 80.5 240 80.5 240C80.5 240 59.9003 243.255 51.3036 255.935C42.707 268.615 40.5 299 40.5 299C40.5 299 38.293 268.615 29.6964 255.935C21.0997 243.255 0.5 240 0.5 240C0.5 240 21.0997 236.745 29.6964 224.065C38.293 211.385 40.5 181 40.5 181Z" fill="white" fill-opacity="0.1"/>
<path d="M172 0C172 0 173.683 30.3846 180.238 43.0646C186.793 55.7447 202.5 59 202.5 59C202.5 59 186.793 62.2553 180.238 74.9354C173.683 87.6154 172 118 172 118C172 118 170.317 87.6154 163.762 74.9354C157.207 62.2553 141.5 59 141.5 59C141.5 59 157.207 55.7447 163.762 43.0646C170.317 30.3846 172 0 172 0Z" fill="white" fill-opacity="0.1"/>
<path d="M41 79C41 79 42.6828 94.4498 49.2378 100.897C55.7927 107.345 71.5 109 71.5 109C71.5 109 55.7927 110.655 49.2378 117.103C42.6828 123.55 41 139 41 139C41 139 39.3172 123.55 32.7622 117.103C26.2073 110.655 10.5 109 10.5 109C10.5 109 26.2073 107.345 32.7622 100.897C39.3172 94.4498 41 79 41 79Z" fill="white" fill-opacity="0.1"/>
</svg>
